<svg width="180" height="180" viewBox="0 0 180 180" fill="none" xmlns="http://www.w3.org/2000/svg">
<path d="M143.974 98.7348H143.993C143.955 98.1334 143.927 97.5415 143.861 96.9495C143.448 92.8716 142.452 88.775 140.836 84.791C137.84 77.3775 133.087 71.2043 127.254 66.5627C119.354 60.2861 109.482 56.8002 99.319 56.8472C95.1579 56.866 90.9592 57.4673 86.8262 58.7076C72.5581 63.3022 62.3103 75.8648 62.3103 90.626C62.3103 98.0395 64.8934 104.899 69.2705 110.47C70.3226 111.814 71.4873 113.083 72.746 114.266C74.8407 116.249 77.1889 117.987 79.7532 119.434C82.1391 120.787 84.7034 121.905 87.4086 122.723C88.254 122.986 89.1275 123.211 90.0011 123.409V127.28L111.314 115.3L90.0011 103.32V107.125C88.6203 106.58 82.4678 103.95 79.6593 96.9777C76.3811 88.8313 80.4577 81.6715 80.9556 80.8353C81.3125 80.2715 82.3363 78.7306 83.7923 77.3963C83.7923 77.3963 84.7785 76.4849 86.0278 75.6675C86.2533 75.5171 86.4693 75.3856 86.4693 75.3856C86.7041 75.2446 86.9389 75.1131 87.1832 74.991C87.2395 74.9534 87.3053 74.9252 87.371 74.897V74.8876C88.3855 74.305 89.4563 73.7788 90.5741 73.3278C93.7583 72.0406 97.0553 71.4392 100.315 71.4674C102.813 71.4862 105.284 71.8621 107.669 72.5762C115.513 74.9158 122.36 80.8635 125.77 89.2917C127.038 92.43 127.705 95.6529 127.855 98.8381C127.883 99.0824 127.902 99.3361 127.912 99.5898C128.146 101.92 129.264 120.637 105.96 128.605C91.7576 133.453 80.1665 129.535 72.1354 124.424C65.4194 119.989 61.3522 114.83 60.5726 113.797L60.3565 113.496C55.6694 106.844 52.9078 98.7442 52.9078 89.987C52.9078 74.4084 61.6058 60.8687 74.4086 53.9438C75.3009 53.5116 76.212 53.1076 77.142 52.7411C77.9498 52.4216 78.767 52.1303 79.603 51.8673C80.0444 51.7357 80.4765 51.6042 80.9086 51.4914C80.918 51.4914 80.918 51.4914 80.918 51.4914C83.2005 50.7209 85.5863 50.1572 88.0192 49.772C88.6861 49.6592 89.353 49.5652 90.0199 49.4901C90.0669 49.4807 90.1138 49.4807 90.1608 49.4713L90.1702 48.4565H90.1796V33H90.1326V33.0094C83.5762 33.3477 77.3204 34.7946 71.5343 37.1624C71.4873 37.1718 71.4404 37.1906 71.3934 37.2188C70.9989 37.3786 70.6138 37.5383 70.238 37.7074C70.2193 37.7168 70.2099 37.7168 70.1911 37.7262C58.5906 42.8752 49.0284 51.7545 42.9981 62.8325C42.9793 62.87 42.9605 62.8982 42.9417 62.9358C42.6505 63.4808 42.3687 64.0257 42.087 64.5801C42.0494 64.6647 42.0024 64.7493 41.9648 64.8338C41.7112 65.3318 41.4764 65.8392 41.2416 66.3466C41.1758 66.4875 41.1101 66.6285 41.0537 66.7694C40.8471 67.2204 40.6498 67.6808 40.4619 68.1318C40.368 68.3479 40.2835 68.564 40.1989 68.7801C40.0393 69.1654 39.889 69.5412 39.7481 69.9265C39.626 70.2459 39.5132 70.5654 39.4005 70.8755C39.2972 71.1668 39.1939 71.4486 39.1 71.7305C38.9403 72.1815 38.79 72.6419 38.6491 73.0929C38.6021 73.2433 38.5551 73.3936 38.5082 73.544C33.9056 88.634 35.5118 105.566 44.3695 120.101C50.8601 130.738 60.2626 138.508 70.9331 143.009C71.0458 143.047 71.168 143.103 71.2807 143.15C71.337 143.169 71.3934 143.187 71.4497 143.216L74.8031 144.287C75.1694 144.4 75.5545 144.512 75.9303 144.625C106.214 154.632 128.795 134.975 128.795 134.975C145.007 122.187 144.021 99.7401 143.974 98.7348Z" fill="#F6F2EF"/>
</svg>
