<svg width="152" height="152" viewBox="0 0 152 152" fill="none" xmlns="http://www.w3.org/2000/svg">
<path d="M121.578 83.3761H121.594C121.562 82.8682 121.539 82.3684 121.483 81.8685C121.134 78.425 120.293 74.9655 118.929 71.6013C116.399 65.3411 112.385 60.1281 107.459 56.2085C100.789 50.9083 92.4522 47.9646 83.8698 48.0043C80.3559 48.0202 76.8104 48.528 73.3203 49.5753C61.2717 53.4553 52.618 64.0636 52.618 76.5286C52.618 82.7889 54.7992 88.581 58.4955 93.2862C59.3839 94.4208 60.3675 95.4919 61.4303 96.4917C63.1992 98.1659 65.1821 99.6337 67.3476 100.856C69.3623 101.998 71.5277 102.942 73.8121 103.633C74.526 103.855 75.2636 104.045 76.0013 104.212V107.481L93.9989 97.3645L76.0013 87.2481V90.4615C74.8353 90.0013 69.6399 87.7797 67.2682 81.8923C64.5 75.0131 67.9425 68.9671 68.3629 68.2609C68.6643 67.7849 69.5288 66.4836 70.7583 65.3569C70.7583 65.3569 71.5912 64.5873 72.6461 63.897C72.8365 63.7701 73.0189 63.659 73.0189 63.659C73.2172 63.5399 73.4155 63.4289 73.6217 63.3257C73.6693 63.294 73.7248 63.2702 73.7804 63.2464V63.2384C74.637 62.7465 75.5413 62.3022 76.4852 61.9213C79.1741 60.8343 81.9582 60.3265 84.7106 60.3503C86.8205 60.3662 88.9066 60.6835 90.9213 61.2866C97.5445 63.2622 103.327 68.2847 106.206 75.4019C107.277 78.052 107.84 80.7736 107.967 83.4633C107.991 83.6696 108.007 83.8839 108.015 84.0981C108.213 86.0658 109.157 101.871 89.4777 108.6C77.4846 112.694 67.6966 109.385 60.9148 105.069C55.2434 101.324 51.8089 96.9678 51.1505 96.095L50.9681 95.8411C47.0101 90.2235 44.6781 83.384 44.6781 75.9891C44.6781 62.8338 52.0231 51.4003 62.8343 45.5526C63.5878 45.1876 64.3572 44.8464 65.1425 44.537C65.8246 44.2672 66.5147 44.0212 67.2207 43.799C67.5935 43.688 67.9583 43.5769 68.3232 43.4817C68.3311 43.4817 68.3311 43.4817 68.3311 43.4817C70.2586 42.8311 72.2733 42.355 74.3277 42.0297C74.8908 41.9345 75.454 41.8551 76.0172 41.7916C76.0568 41.7837 76.0965 41.7837 76.1362 41.7758L76.1441 40.9188H76.152V27.8667H76.1124V27.8746C70.5759 28.1603 65.2932 29.3822 60.4071 31.3817C60.3675 31.3896 60.3278 31.4055 60.2881 31.4293C59.955 31.5641 59.6298 31.699 59.3125 31.8419C59.2966 31.8498 59.2887 31.8498 59.2728 31.8577C49.4769 36.2058 41.4022 43.7038 36.3099 53.0586C36.294 53.0903 36.2782 53.1141 36.2623 53.1458C36.0164 53.606 35.7784 54.0662 35.5405 54.5343C35.5088 54.6058 35.4691 54.6772 35.4374 54.7486C35.2232 55.1691 35.0249 55.5976 34.8266 56.026C34.7711 56.145 34.7156 56.2641 34.668 56.3831C34.4935 56.7639 34.3269 57.1527 34.1683 57.5336C34.0889 57.7161 34.0176 57.8986 33.9462 58.081C33.8113 58.4064 33.6844 58.7237 33.5654 59.049C33.4623 59.3188 33.3671 59.5886 33.2719 59.8504C33.1847 60.0964 33.0974 60.3344 33.0181 60.5725C32.8833 60.9533 32.7564 61.3421 32.6374 61.723C32.5977 61.8499 32.5581 61.9769 32.5184 62.1038C28.6318 74.8465 29.9881 89.1444 37.4679 101.419C42.9489 110.401 50.8888 116.963 59.8995 120.763C59.9947 120.795 60.0978 120.843 60.193 120.882C60.2406 120.898 60.2881 120.914 60.3357 120.938L63.1674 121.842C63.4768 121.937 63.802 122.033 64.1193 122.128C89.6918 130.578 108.76 113.979 108.76 113.979C122.451 103.18 121.618 84.225 121.578 83.3761Z" fill="#F6F2EF"/>
</svg>
