<svg width="223" height="237" viewBox="0 0 223 237" fill="none" xmlns="http://www.w3.org/2000/svg">
<path d="M222.734 135.601H222.772C222.695 134.36 222.637 133.139 222.501 131.918C221.648 123.506 219.595 115.055 216.262 106.837C210.081 91.544 200.276 78.8096 188.243 69.2346C171.948 56.2871 151.583 49.0961 130.618 49.193C122.034 49.2318 113.373 50.4722 104.847 53.0307C75.4139 62.5088 54.2741 88.4234 54.2741 118.873C54.2741 134.166 59.6026 148.316 68.6321 159.809C70.8023 162.581 73.205 165.198 75.8014 167.64C80.1224 171.73 84.9665 175.316 90.2563 178.3C95.1779 181.092 100.468 183.398 106.048 185.084C107.792 185.627 109.594 186.092 111.396 186.499V194.485L155.361 169.772L111.396 145.059V152.909C108.548 151.785 95.8561 146.358 90.0625 131.976C83.3001 115.171 91.7096 100.402 92.7365 98.6768C93.4728 97.5138 95.5848 94.3351 98.5882 91.5827C98.5882 91.5827 100.623 89.7026 103.2 88.0164C103.665 87.7062 104.111 87.4348 104.111 87.4348C104.595 87.1441 105.079 86.8728 105.583 86.6208C105.699 86.5433 105.835 86.4851 105.971 86.427V86.4076C108.063 85.2058 110.272 84.1204 112.578 83.1901C119.147 80.5346 125.948 79.2942 132.672 79.3523C137.826 79.3911 142.922 80.1664 147.843 81.6395C164.023 86.4657 178.148 98.7349 185.182 116.121C187.798 122.595 189.173 129.243 189.483 135.814C189.542 136.318 189.58 136.841 189.6 137.364C190.084 142.171 192.39 180.781 144.317 197.218C115.02 207.219 91.1089 199.137 74.542 188.593C60.6878 179.444 52.2977 168.803 50.6895 166.671L50.2438 166.051C40.5749 152.328 34.8782 135.62 34.8782 117.555C34.8782 85.4191 52.8209 57.4888 79.2311 43.2038C81.0718 42.3122 82.9513 41.4788 84.8696 40.7228C86.536 40.0638 88.2218 39.4629 89.9463 38.9202C90.857 38.6489 91.7483 38.3775 92.6396 38.1449C92.659 38.1449 92.659 38.1449 92.659 38.1449C97.3675 36.5556 102.289 35.3926 107.308 34.5979C108.683 34.3653 110.059 34.1715 111.435 34.0164C111.532 33.997 111.629 33.9971 111.725 33.9777L111.745 31.8843H111.764V0H111.667V0.0194015C98.1425 0.717175 85.2378 3.70206 73.3018 8.58647C73.205 8.60586 73.1081 8.64462 73.0112 8.70277C72.1974 9.03227 71.403 9.36181 70.6279 9.7107C70.5891 9.73008 70.5698 9.73006 70.531 9.74944C46.601 20.3711 26.8757 38.6877 14.436 61.5397C14.3972 61.6173 14.3585 61.6754 14.3197 61.7529C13.719 62.8771 13.1378 64.0013 12.5565 65.1449C12.479 65.3193 12.3821 65.4938 12.3046 65.6682C11.7814 66.6955 11.297 67.7421 10.8126 68.7888C10.6769 69.0795 10.5413 69.3703 10.4251 69.661C9.99877 70.5914 9.59185 71.5411 9.20432 72.4715C9.01056 72.9173 8.83617 73.3631 8.66178 73.8089C8.33238 74.6036 8.02235 75.3789 7.7317 76.1736C7.47981 76.8326 7.2473 77.4916 7.01478 78.1312C6.80164 78.7321 6.5885 79.3136 6.39473 79.8951C6.06533 80.8254 5.7553 81.7751 5.46465 82.7055C5.36777 83.0156 5.27088 83.3258 5.174 83.6359C-4.32049 114.764 -1.0071 149.692 17.265 179.677C30.6541 201.618 50.05 217.647 72.0617 226.931C72.2943 227.009 72.5462 227.125 72.7787 227.222C72.895 227.261 73.0112 227.3 73.1275 227.358L80.0449 229.567C80.8006 229.8 81.595 230.033 82.3701 230.265C144.84 250.908 191.421 210.359 191.421 210.359C224.865 183.98 222.83 137.675 222.734 135.601Z" fill="#0C1618"/>
</svg>
